<svg xmlns="http://www.w3.org/2000/svg" width="176.909" height="140" viewBox="0 0 176.909 140"><defs><style>.a{opacity:0.6;}.b{fill:#54b686;}.c{fill:#fff;}</style></defs><g class="a"><path class="b" d="M40.3,0h96.3a40.3,40.3,0,0,1,40.3,40.3V99.7a40.3,40.3,0,0,1-40.3,40.3H40.3A40.3,40.3,0,0,1,0,99.7V40.3A40.3,40.3,0,0,1,40.3,0Z"/><g transform="translate(37.564 36.222)"><g transform="translate(15.251 27.89)"><path class="c" d="M213.378,121.878a3.416,3.416,0,0,1,.56,2.044v7.148h-1.026v-7.017a3.011,3.011,0,0,0-.327-1.568,1.048,1.048,0,0,0-.942-.521q-1.215,0-2.185,2.014v7.093h-1.025v-7.017a2.946,2.946,0,0,0-.332-1.568,1.07,1.07,0,0,0-.952-.521q-1.212,0-2.184,2.014v7.093h-1.025v-9.763h.9l.093,1.605a2.878,2.878,0,0,1,2.426-1.809,1.785,1.785,0,0,1,1.289.5,2.63,2.63,0,0,1,.709,1.4q1.026-1.9,2.483-1.9a1.806,1.806,0,0,1,1.544.774Z" transform="translate(-203.785 -117.035)"/><path class="c" d="M222.539,130.09a1.1,1.1,0,0,0,.5.458l-.224.727a1.757,1.757,0,0,1-.913-.5,1.9,1.9,0,0,1-.415-1.026,2.7,2.7,0,0,1-2.445,1.53,2.313,2.313,0,0,1-1.848-.8,3.12,3.12,0,0,1-.69-2.108,2.953,2.953,0,0,1,.923-2.343,3.878,3.878,0,0,1,2.641-.811h1.288V124.09a2.491,2.491,0,0,0-.421-1.586,1.583,1.583,0,0,0-1.314-.523,5.693,5.693,0,0,0-2.242.523l-.3-.747a6.245,6.245,0,0,1,2.631-.653,2.528,2.528,0,0,1,2.006.756,3.172,3.172,0,0,1,.664,2.159v5.186a1.9,1.9,0,0,0,.159.884Zm-1.185-1.464v-2.651H220.16a2.768,2.768,0,0,0-1.932.581,2.3,2.3,0,0,0-.625,1.773,2.519,2.519,0,0,0,.42,1.569,1.412,1.412,0,0,0,1.185.541q1.422,0,2.146-1.815Z" transform="translate(-204.033 -117.035)"/><path class="c" d="M229.479,130.617a2.747,2.747,0,0,1-1.736.615,1.942,1.942,0,0,1-1.5-.6,2.276,2.276,0,0,1-.551-1.605v-6.908h-1.305v-.859h1.305V118.93l1.046-.13v2.463h2.053l-.13.859h-1.922v6.905a1.48,1.48,0,0,0,.28.961,1.016,1.016,0,0,0,.84.345,2.166,2.166,0,0,0,1.194-.391Z" transform="translate(-204.189 -116.99)"/><path class="c" d="M236.453,121.781a3.28,3.28,0,0,1,.587,2.063v7.148H236v-7.017q0-2.089-1.4-2.089-1.329,0-2.408,2.108v7h-1.045V117.255l1.045-.131v5.749a4.916,4.916,0,0,1,1.158-1.373,2.313,2.313,0,0,1,1.456-.475A1.975,1.975,0,0,1,236.453,121.781Z" transform="translate(-204.323 -116.956)"/><path class="c" d="M246.074,126.609h-5.338a5.472,5.472,0,0,0,.7,2.893,1.986,1.986,0,0,0,1.707.877,2.74,2.74,0,0,0,1.12-.214,3.922,3.922,0,0,0,1.008-.681l.522.616a4.272,4.272,0,0,1-1.222.877,3.39,3.39,0,0,1-1.447.3A2.972,2.972,0,0,1,240.577,130a6.311,6.311,0,0,1-.924-3.723,6.936,6.936,0,0,1,.887-3.826,2.77,2.77,0,0,1,2.435-1.343,2.63,2.63,0,0,1,2.333,1.2,6.358,6.358,0,0,1,.8,3.517,7.767,7.767,0,0,1-.037.782Zm-.989-1.12a5.25,5.25,0,0,0-.522-2.631,1.725,1.725,0,0,0-1.586-.878q-2.11,0-2.242,3.807h4.349Z" transform="translate(-204.491 -117.035)"/><path class="c" d="M258.161,121.878a3.416,3.416,0,0,1,.56,2.044v7.148h-1.026v-7.017a3,3,0,0,0-.327-1.568,1.046,1.046,0,0,0-.942-.521q-1.213,0-2.184,2.014v7.093h-1.026v-7.017a2.939,2.939,0,0,0-.332-1.568,1.069,1.069,0,0,0-.952-.521q-1.213,0-2.184,2.014v7.093h-1.026v-9.763h.887l.094,1.605a2.877,2.877,0,0,1,2.426-1.809,1.784,1.784,0,0,1,1.289.5,2.63,2.63,0,0,1,.71,1.4q1.026-1.9,2.482-1.9a1.805,1.805,0,0,1,1.553.774Z" transform="translate(-204.672 -117.035)"/><path class="c" d="M267.321,130.09a1.1,1.1,0,0,0,.5.458l-.225.727a1.757,1.757,0,0,1-.913-.5,1.89,1.89,0,0,1-.411-1.026,2.7,2.7,0,0,1-2.445,1.53,2.314,2.314,0,0,1-1.848-.8,3.116,3.116,0,0,1-.69-2.108,2.955,2.955,0,0,1,.924-2.343,3.876,3.876,0,0,1,2.641-.811h1.281V124.09a2.506,2.506,0,0,0-.42-1.586,1.586,1.586,0,0,0-1.316-.523,5.686,5.686,0,0,0-2.242.523l-.3-.747a6.244,6.244,0,0,1,2.631-.653,2.529,2.529,0,0,1,2.006.756,3.169,3.169,0,0,1,.664,2.159v5.186A1.9,1.9,0,0,0,267.321,130.09Zm-1.188-1.466v-2.649h-1.195a2.768,2.768,0,0,0-1.931.581,2.3,2.3,0,0,0-.625,1.773,2.525,2.525,0,0,0,.415,1.569,1.416,1.416,0,0,0,1.186.541Q265.407,130.436,266.133,128.624Z" transform="translate(-204.92 -117.035)"/><path class="c" d="M274.26,130.617a2.745,2.745,0,0,1-1.736.615,1.944,1.944,0,0,1-1.5-.6,2.279,2.279,0,0,1-.551-1.605v-6.908h-1.306v-.859h1.306V118.93l1.046-.13v2.463h2.053l-.131.859h-1.921v6.905a1.486,1.486,0,0,0,.279.961,1.017,1.017,0,0,0,.84.345,2.166,2.166,0,0,0,1.195-.391Z" transform="translate(-205.076 -116.99)"/><path class="c" d="M276.966,117.177a.8.8,0,0,1,.205.56.747.747,0,0,1-.205.522.756.756,0,0,1-1.074,0,.732.732,0,0,1-.215-.522.8.8,0,0,1,.206-.56.766.766,0,0,1,1.079,0Zm0,4.05v9.761H275.92v-9.762Z" transform="translate(-205.205 -116.953)"/><path class="c" d="M284.265,121.337a3.472,3.472,0,0,1,1.064.756l-.5.634a2.98,2.98,0,0,0-.83-.551,2.357,2.357,0,0,0-.923-.178,1.966,1.966,0,0,0-1.755,1.027,6.277,6.277,0,0,0-.634,3.21q0,4.124,2.369,4.124a2.69,2.69,0,0,0,1.811-.765l.522.635a3.23,3.23,0,0,1-2.333,1.045,3,3,0,0,1-2.566-1.26,6.331,6.331,0,0,1-.923-3.761,6.6,6.6,0,0,1,.933-3.82,2.954,2.954,0,0,1,2.556-1.334A3.022,3.022,0,0,1,284.265,121.337Z" transform="translate(-205.282 -117.035)"/><path class="c" d="M292.108,122.186l-.485.635a4.318,4.318,0,0,0-1.016-.653,2.678,2.678,0,0,0-1.074-.205,1.732,1.732,0,0,0-1.241.448,1.608,1.608,0,0,0-.476,1.231,1.444,1.444,0,0,0,.42,1.079,4.524,4.524,0,0,0,1.539.821,5.07,5.07,0,0,1,1.959,1.148,2.491,2.491,0,0,1,.6,1.764,2.628,2.628,0,0,1-.849,2.053,3.046,3.046,0,0,1-2.117.765,4.01,4.01,0,0,1-2.93-1.251l.581-.6a4.4,4.4,0,0,0,1.092.737,2.939,2.939,0,0,0,1.241.249,1.938,1.938,0,0,0,1.39-.5,1.861,1.861,0,0,0,.531-1.418,2.076,2.076,0,0,0-.186-.942,1.762,1.762,0,0,0-.635-.653,7.087,7.087,0,0,0-1.288-.606,4.51,4.51,0,0,1-1.838-1.079,2.233,2.233,0,0,1-.551-1.549,2.39,2.39,0,0,1,.783-1.827,2.77,2.77,0,0,1,1.96-.727,3.663,3.663,0,0,1,2.592,1.084Z" transform="translate(-205.418 -117.035)"/><path class="c" d="M208.98,135.285a2.8,2.8,0,0,1,.719,2,3.06,3.06,0,0,1-.57,1.848,7.209,7.209,0,0,1-1.763,1.605l3.061,3.6a20.29,20.29,0,0,0,1.007-3.527l.913.242a17.112,17.112,0,0,1-1.289,3.9l1.9,2.146-.785.616-1.7-2A4.959,4.959,0,0,1,209,147.2a3.606,3.606,0,0,1-1.932.513,3.369,3.369,0,0,1-1.68-.42,3.023,3.023,0,0,1-1.175-1.194,3.972,3.972,0,0,1,.111-3.8,6.955,6.955,0,0,1,1.68-1.7,8.249,8.249,0,0,1-1.213-1.642,3.46,3.46,0,0,1-.354-1.605,2.923,2.923,0,0,1,.718-2.054,2.753,2.753,0,0,1,3.826-.019Zm-3.7,7.3a3.387,3.387,0,0,0-.415,1.717,2.642,2.642,0,0,0,.625,1.857,2.088,2.088,0,0,0,1.615.681,2.787,2.787,0,0,0,1.567-.429,4.327,4.327,0,0,0,1.213-1.288l-3.3-3.919a4.7,4.7,0,0,0-1.3,1.382Zm.616-6.7a2.248,2.248,0,0,0-.438,1.456,2.989,2.989,0,0,0,.271,1.3,8.164,8.164,0,0,0,1.054,1.52,5.882,5.882,0,0,0,1.447-1.334,2.528,2.528,0,0,0,.458-1.5,2.216,2.216,0,0,0-.429-1.484,1.607,1.607,0,0,0-2.362.046Z" transform="translate(-203.781 -117.301)"/><path class="c" d="M229.618,138.379a3.412,3.412,0,0,1,.56,2.044v7.149h-1.027v-7.017a3,3,0,0,0-.326-1.568,1.047,1.047,0,0,0-.942-.522q-1.213,0-2.184,2.015v7.092h-1.026v-7.017a2.927,2.927,0,0,0-.332-1.568,1.068,1.068,0,0,0-.952-.522q-1.213,0-2.184,2.015v7.092h-1.026V137.81h.9l.094,1.605a2.881,2.881,0,0,1,2.426-1.81,1.782,1.782,0,0,1,1.288.5,2.634,2.634,0,0,1,.71,1.4q1.026-1.9,2.482-1.9a1.806,1.806,0,0,1,1.544.774Z" transform="translate(-204.106 -117.362)"/><path class="c" d="M239.3,143.111h-5.338a5.469,5.469,0,0,0,.7,2.894,1.987,1.987,0,0,0,1.708.877,2.744,2.744,0,0,0,1.12-.214,3.956,3.956,0,0,0,1.007-.681l.522.616a4.283,4.283,0,0,1-1.222.877,3.393,3.393,0,0,1-1.446.3A2.969,2.969,0,0,1,233.8,146.5a6.311,6.311,0,0,1-.924-3.723,6.935,6.935,0,0,1,.886-3.826,2.773,2.773,0,0,1,2.436-1.344,2.631,2.631,0,0,1,2.332,1.2,6.362,6.362,0,0,1,.8,3.518C239.333,142.6,239.319,142.861,239.3,143.111Zm-.99-1.118a5.264,5.264,0,0,0-.521-2.632,1.725,1.725,0,0,0-1.587-.877q-2.11,0-2.242,3.806H238.3Z" transform="translate(-204.358 -117.362)"/><path class="c" d="M246.013,137.841a3.467,3.467,0,0,1,1.064.756l-.5.634a2.961,2.961,0,0,0-.83-.551,2.354,2.354,0,0,0-.924-.178,1.967,1.967,0,0,0-1.754,1.026,6.279,6.279,0,0,0-.635,3.21q0,4.124,2.37,4.125a2.69,2.69,0,0,0,1.81-.766l.523.635a3.233,3.233,0,0,1-2.333,1.045,3,3,0,0,1-2.567-1.26,6.34,6.34,0,0,1-.923-3.76,6.607,6.607,0,0,1,.933-3.82,2.955,2.955,0,0,1,2.557-1.334,3.034,3.034,0,0,1,1.214.234Z" transform="translate(-204.525 -117.362)"/><path class="c" d="M254.521,138.283a3.274,3.274,0,0,1,.589,2.062v7.149h-1.045v-7.017q0-2.09-1.4-2.09-1.329,0-2.408,2.109v7h-1.045V133.756l1.045-.13v5.748A4.934,4.934,0,0,1,251.413,138a2.313,2.313,0,0,1,1.456-.476A1.97,1.97,0,0,1,254.521,138.283Z" transform="translate(-204.681 -117.284)"/><path class="c" d="M263.627,146.591a1.1,1.1,0,0,0,.5.458l-.225.727a1.749,1.749,0,0,1-.913-.5,1.884,1.884,0,0,1-.41-1.025,2.707,2.707,0,0,1-2.445,1.53,2.315,2.315,0,0,1-1.848-.8,3.122,3.122,0,0,1-.69-2.109,2.952,2.952,0,0,1,.923-2.342,3.877,3.877,0,0,1,2.641-.811h1.288v-1.12a2.5,2.5,0,0,0-.415-1.586,1.587,1.587,0,0,0-1.315-.522,5.7,5.7,0,0,0-2.242.522l-.3-.747a6.255,6.255,0,0,1,2.633-.653,2.525,2.525,0,0,1,2.005.756,3.172,3.172,0,0,1,.664,2.159v5.189a1.9,1.9,0,0,0,.151.883Zm-1.186-1.465v-2.651h-1.194a2.77,2.77,0,0,0-1.932.581,2.3,2.3,0,0,0-.625,1.773,2.515,2.515,0,0,0,.421,1.568,1.412,1.412,0,0,0,1.185.541q1.419,0,2.146-1.813Z" transform="translate(-204.847 -117.362)"/><path class="c" d="M272.095,138.362a3.275,3.275,0,0,1,.589,2.062v7.149h-1.045v-7.017q0-2.09-1.4-2.09-1.329,0-2.408,2.109v7h-1.046V137.81h.9l.112,1.68a4.992,4.992,0,0,1,1.158-1.4,2.339,2.339,0,0,1,1.495-.485A1.97,1.97,0,0,1,272.095,138.362Z" transform="translate(-205.029 -117.362)"/><path class="c" d="M276.966,133.678a.8.8,0,0,1,.205.561.747.747,0,0,1-.205.522.756.756,0,0,1-1.074,0,.733.733,0,0,1-.215-.522.8.8,0,0,1,.206-.561.768.768,0,0,1,1.079,0Zm0,4.051v9.761H275.92v-9.762Z" transform="translate(-205.205 -117.28)"/><path class="c" d="M284.265,137.841a3.477,3.477,0,0,1,1.064.756l-.5.634a2.962,2.962,0,0,0-.83-.551,2.357,2.357,0,0,0-.923-.178,1.967,1.967,0,0,0-1.755,1.026,6.28,6.28,0,0,0-.634,3.21q0,4.124,2.369,4.125a2.692,2.692,0,0,0,1.811-.766l.522.635a3.231,3.231,0,0,1-2.333,1.045,3,3,0,0,1-2.566-1.26,6.334,6.334,0,0,1-.923-3.76,6.6,6.6,0,0,1,.933-3.82,2.955,2.955,0,0,1,2.556-1.334,3.036,3.036,0,0,1,1.214.234Z" transform="translate(-205.282 -117.362)"/><path class="c" d="M292.108,138.688l-.485.635a4.323,4.323,0,0,0-1.016-.654,2.692,2.692,0,0,0-1.074-.205,1.736,1.736,0,0,0-1.241.448,1.608,1.608,0,0,0-.476,1.231,1.444,1.444,0,0,0,.42,1.079,4.508,4.508,0,0,0,1.539.822,5.07,5.07,0,0,1,1.959,1.147,2.491,2.491,0,0,1,.6,1.764,2.627,2.627,0,0,1-.849,2.053,3.047,3.047,0,0,1-2.117.766,4.01,4.01,0,0,1-2.93-1.251l.581-.6a4.4,4.4,0,0,0,1.092.737,2.951,2.951,0,0,0,1.241.249,1.938,1.938,0,0,0,1.39-.5,1.862,1.862,0,0,0,.531-1.417,2.075,2.075,0,0,0-.186-.943,1.755,1.755,0,0,0-.635-.653,7.032,7.032,0,0,0-1.288-.606,4.519,4.519,0,0,1-1.838-1.079,2.235,2.235,0,0,1-.551-1.549,2.388,2.388,0,0,1,.783-1.827,2.767,2.767,0,0,1,1.96-.728,3.664,3.664,0,0,1,2.592,1.083Z" transform="translate(-205.418 -117.362)"/></g><path class="c" d="M256.614,88.5H188.223v2.248h.037v66.161H210.7v-2.248H190.506V90.748h63.874v20.19h2.248V88.5Z" transform="translate(-188.223 -88.5)"/></g></g></svg>